<svg width="1920" height="3240" viewBox="0 0 1920 3240" fill="none" xmlns="http://www.w3.org/2000/svg">
<g clip-path="url(#clip0_41_78)">
<path fill-rule="evenodd" clip-rule="evenodd" d="M323.662 205.842L288.307 170.486L252.951 205.842L288.307 241.197L323.662 205.842ZM217.595 170.486L146.885 99.7754L111.529 135.131L182.24 205.841L217.595 170.486ZM111.529 347.263L146.885 382.618L111.529 417.973L76.1739 382.618L111.529 347.263ZM288.307 241.197L323.662 276.553L288.307 311.908L323.662 347.263L252.951 417.973L217.596 382.618L288.306 311.908L252.951 276.553L288.307 241.197ZM217.596 382.618L182.24 347.263L146.885 382.618L182.24 417.973L217.596 382.618ZM111.53 276.552L40.8193 205.842L5.464 241.197L76.1747 311.908L111.53 276.552Z" fill="#39FF14" fill-opacity="0.1"/>
<path fill-rule="evenodd" clip-rule="evenodd" d="M111.527 -6.28992L146.883 29.0654L111.527 64.4208L76.1725 29.0658L40.8175 64.4208L5.46217 29.0654L40.8175 -6.28991L76.1725 29.0651L111.527 -6.28992ZM146.883 99.7756L217.594 170.486L182.238 205.842L111.528 135.131L146.883 99.7756ZM-29.8936 205.842L-65.2489 170.486L-100.604 205.842L-65.2489 241.197L-29.8936 205.842ZM-100.604 64.4208L-65.2491 99.7758L-100.604 135.131L-65.2489 170.486L-29.8936 135.131L-65.2485 99.7759L5.46191 29.0654L-29.8934 -6.28992L-100.604 64.4208ZM40.8177 205.842L111.528 276.553L76.173 311.908L5.46231 241.197L40.8177 205.842Z" fill="#39FF14" fill-opacity="0.1"/>
<path fill-rule="evenodd" clip-rule="evenodd" d="M323.662 1337.68L288.307 1302.33L252.951 1337.68L288.307 1373.04L323.662 1337.68ZM217.595 1302.33L146.885 1231.62L111.529 1266.97L182.24 1337.68L217.595 1302.33ZM111.529 1479.1L146.885 1514.46L111.529 1549.82L76.1739 1514.46L111.529 1479.1ZM288.307 1373.04L323.662 1408.39L288.307 1443.75L323.662 1479.1L252.951 1549.82L217.596 1514.46L288.306 1443.75L252.951 1408.39L288.307 1373.04ZM217.596 1514.46L182.24 1479.1L146.885 1514.46L182.24 1549.82L217.596 1514.46ZM111.53 1408.39L40.8193 1337.68L5.464 1373.04L76.1747 1443.75L111.53 1408.39Z" fill="#39FF14" fill-opacity="0.1"/>
<path fill-rule="evenodd" clip-rule="evenodd" d="M111.527 1125.55L146.883 1160.91L111.527 1196.26L76.1725 1160.91L40.8175 1196.26L5.46217 1160.91L40.8175 1125.55L76.1725 1160.91L111.527 1125.55ZM146.883 1231.62L217.594 1302.33L182.238 1337.68L111.528 1266.97L146.883 1231.62ZM-29.8936 1337.68L-65.2489 1302.33L-100.604 1337.68L-65.2489 1373.04L-29.8936 1337.68ZM-100.604 1196.26L-65.2491 1231.62L-100.604 1266.97L-65.2489 1302.33L-29.8936 1266.97L-65.2485 1231.62L5.46191 1160.91L-29.8934 1125.55L-100.604 1196.26ZM40.8177 1337.68L111.528 1408.39L76.173 1443.75L5.46231 1373.04L40.8177 1337.68Z" fill="#39FF14" fill-opacity="0.1"/>
<path fill-rule="evenodd" clip-rule="evenodd" d="M889.349 205.842L853.994 170.486L818.639 205.842L853.994 241.197L889.349 205.842ZM783.283 170.486L712.572 99.7754L677.217 135.131L747.928 205.841L783.283 170.486ZM677.217 347.263L712.572 382.618L677.217 417.973L641.861 382.618L677.217 347.263ZM853.994 241.197L889.349 276.553L853.994 311.908L889.349 347.263L818.639 417.973L783.283 382.618L853.994 311.908L818.639 276.553L853.994 241.197ZM783.283 382.618L747.928 347.263L712.572 382.618L747.928 417.973L783.283 382.618ZM677.218 276.552L606.507 205.842L571.151 241.197L641.862 311.908L677.218 276.552Z" fill="#39FF14" fill-opacity="0.1"/>
<path fill-rule="evenodd" clip-rule="evenodd" d="M677.215 -6.28992L712.57 29.0654L677.215 64.4208L641.86 29.0658L606.505 64.4208L571.15 29.0654L606.505 -6.28991L641.86 29.0651L677.215 -6.28992ZM712.571 99.7756L783.281 170.486L747.926 205.842L677.215 135.131L712.571 99.7756ZM535.794 205.842L500.439 170.486L465.083 205.842L500.439 241.197L535.794 205.842ZM465.083 64.4208L500.438 99.7758L465.083 135.131L500.439 170.486L535.794 135.131L500.439 99.7759L571.149 29.0654L535.794 -6.28992L465.083 64.4208ZM606.505 205.842L677.216 276.553L641.86 311.908L571.15 241.197L606.505 205.842Z" fill="#39FF14" fill-opacity="0.1"/>
<path fill-rule="evenodd" clip-rule="evenodd" d="M889.349 1337.68L853.994 1302.33L818.639 1337.68L853.994 1373.04L889.349 1337.68ZM783.283 1302.33L712.572 1231.62L677.217 1266.97L747.928 1337.68L783.283 1302.33ZM677.217 1479.1L712.572 1514.46L677.217 1549.82L641.861 1514.46L677.217 1479.1ZM853.994 1373.04L889.349 1408.39L853.994 1443.75L889.349 1479.1L818.639 1549.82L783.283 1514.46L853.994 1443.75L818.639 1408.39L853.994 1373.04ZM783.283 1514.46L747.928 1479.1L712.572 1514.46L747.928 1549.82L783.283 1514.46ZM677.218 1408.39L606.507 1337.68L571.151 1373.04L641.862 1443.75L677.218 1408.39Z" fill="#39FF14" fill-opacity="0.1"/>
<path fill-rule="evenodd" clip-rule="evenodd" d="M677.215 1125.55L712.57 1160.91L677.215 1196.26L641.86 1160.91L606.505 1196.26L571.15 1160.91L606.505 1125.55L641.86 1160.91L677.215 1125.55ZM712.571 1231.62L783.281 1302.33L747.926 1337.68L677.215 1266.97L712.571 1231.62ZM535.794 1337.68L500.439 1302.33L465.083 1337.68L500.439 1373.04L535.794 1337.68ZM465.083 1196.26L500.438 1231.62L465.083 1266.97L500.439 1302.33L535.794 1266.97L500.439 1231.62L571.149 1160.91L535.794 1125.55L465.083 1196.26ZM606.505 1337.68L677.216 1408.39L641.86 1443.75L571.15 1373.04L606.505 1337.68Z" fill="#39FF14" fill-opacity="0.1"/>
<path fill-rule="evenodd" clip-rule="evenodd" d="M1455.04 205.842L1419.68 170.486L1384.32 205.842L1419.68 241.197L1455.04 205.842ZM1348.97 170.486L1278.26 99.7754L1242.9 135.131L1313.61 205.841L1348.97 170.486ZM1242.9 347.263L1278.26 382.618L1242.9 417.973L1207.55 382.618L1242.9 347.263ZM1419.68 241.197L1455.04 276.553L1419.68 311.908L1455.04 347.263L1384.32 417.973L1348.97 382.618L1419.68 311.908L1384.32 276.553L1419.68 241.197ZM1348.97 382.618L1313.61 347.263L1278.26 382.618L1313.61 417.973L1348.97 382.618ZM1242.9 276.552L1172.19 205.842L1136.84 241.197L1207.55 311.908L1242.9 276.552Z" fill="#39FF14" fill-opacity="0.1"/>
<path fill-rule="evenodd" clip-rule="evenodd" d="M1242.9 -6.28992L1278.26 29.0654L1242.9 64.4208L1207.55 29.0658L1172.19 64.4208L1136.84 29.0654L1172.19 -6.28991L1207.55 29.0651L1242.9 -6.28992ZM1278.26 99.7756L1348.97 170.486L1313.61 205.842L1242.9 135.131L1278.26 99.7756ZM1101.48 205.842L1066.12 170.486L1030.77 205.842L1066.12 241.197L1101.48 205.842ZM1030.77 64.4208L1066.12 99.7758L1030.77 135.131L1066.12 170.486L1101.48 135.131L1066.12 99.7759L1136.83 29.0654L1101.48 -6.28992L1030.77 64.4208ZM1172.19 205.842L1242.9 276.553L1207.55 311.908L1136.84 241.197L1172.19 205.842Z" fill="#39FF14" fill-opacity="0.1"/>
<path fill-rule="evenodd" clip-rule="evenodd" d="M1455.04 1337.68L1419.68 1302.33L1384.32 1337.68L1419.68 1373.04L1455.04 1337.68ZM1348.97 1302.33L1278.26 1231.62L1242.9 1266.97L1313.61 1337.68L1348.97 1302.33ZM1242.9 1479.1L1278.26 1514.46L1242.9 1549.82L1207.55 1514.46L1242.9 1479.1ZM1419.68 1373.04L1455.04 1408.39L1419.68 1443.75L1455.04 1479.1L1384.32 1549.82L1348.97 1514.46L1419.68 1443.75L1384.32 1408.39L1419.68 1373.04ZM1348.97 1514.46L1313.61 1479.1L1278.26 1514.46L1313.61 1549.82L1348.97 1514.46ZM1242.9 1408.39L1172.19 1337.68L1136.84 1373.04L1207.55 1443.75L1242.9 1408.39Z" fill="#39FF14" fill-opacity="0.1"/>
<path fill-rule="evenodd" clip-rule="evenodd" d="M1242.9 1125.55L1278.26 1160.91L1242.9 1196.26L1207.55 1160.91L1172.19 1196.26L1136.84 1160.91L1172.19 1125.55L1207.55 1160.91L1242.9 1125.55ZM1278.26 1231.62L1348.97 1302.33L1313.61 1337.68L1242.9 1266.97L1278.26 1231.62ZM1101.48 1337.68L1066.12 1302.33L1030.77 1337.68L1066.12 1373.04L1101.48 1337.68ZM1030.77 1196.26L1066.12 1231.62L1030.77 1266.97L1066.12 1302.33L1101.48 1266.97L1066.12 1231.62L1136.83 1160.91L1101.48 1125.55L1030.77 1196.26ZM1172.19 1337.68L1242.9 1408.39L1207.55 1443.75L1136.84 1373.04L1172.19 1337.68Z" fill="#39FF14" fill-opacity="0.1"/>
<path fill-rule="evenodd" clip-rule="evenodd" d="M2020.72 205.842L1985.37 170.486L1950.01 205.842L1985.37 241.197L2020.72 205.842ZM1914.66 170.486L1843.95 99.7754L1808.59 135.131L1879.3 205.841L1914.66 170.486ZM1808.59 347.263L1843.95 382.618L1808.59 417.973L1773.23 382.618L1808.59 347.263ZM1985.37 241.197L2020.72 276.553L1985.37 311.908L2020.72 347.263L1950.01 417.973L1914.66 382.618L1985.37 311.908L1950.01 276.553L1985.37 241.197ZM1914.66 382.618L1879.3 347.263L1843.95 382.618L1879.3 417.973L1914.66 382.618ZM1808.59 276.552L1737.88 205.842L1702.52 241.197L1773.24 311.908L1808.59 276.552Z" fill="#39FF14" fill-opacity="0.1"/>
<path fill-rule="evenodd" clip-rule="evenodd" d="M1808.59 -6.28992L1843.94 29.0654L1808.59 64.4208L1773.23 29.0658L1737.88 64.4208L1702.52 29.0654L1737.88 -6.28991L1773.23 29.0651L1808.59 -6.28992ZM1843.94 99.7756L1914.65 170.486L1879.3 205.842L1808.59 135.131L1843.94 99.7756ZM1667.17 205.842L1631.81 170.486L1596.46 205.842L1631.81 241.197L1667.17 205.842ZM1596.46 64.4208L1631.81 99.7758L1596.46 135.131L1631.81 170.486L1667.17 135.131L1631.81 99.7759L1702.52 29.0654L1667.17 -6.28992L1596.46 64.4208ZM1737.88 205.842L1808.59 276.553L1773.23 311.908L1702.52 241.197L1737.88 205.842Z" fill="#39FF14" fill-opacity="0.1"/>
<path fill-rule="evenodd" clip-rule="evenodd" d="M2020.72 1337.68L1985.37 1302.33L1950.01 1337.68L1985.37 1373.04L2020.72 1337.68ZM1914.66 1302.33L1843.95 1231.62L1808.59 1266.97L1879.3 1337.68L1914.66 1302.33ZM1808.59 1479.1L1843.95 1514.46L1808.59 1549.82L1773.23 1514.46L1808.59 1479.1ZM1985.37 1373.04L2020.72 1408.39L1985.37 1443.75L2020.72 1479.1L1950.01 1549.82L1914.66 1514.46L1985.37 1443.75L1950.01 1408.39L1985.37 1373.04ZM1914.66 1514.46L1879.3 1479.1L1843.95 1514.46L1879.3 1549.82L1914.66 1514.46ZM1808.59 1408.39L1737.88 1337.68L1702.52 1373.04L1773.24 1443.75L1808.59 1408.39Z" fill="#39FF14" fill-opacity="0.1"/>
<path fill-rule="evenodd" clip-rule="evenodd" d="M1808.59 1125.55L1843.94 1160.91L1808.59 1196.26L1773.23 1160.91L1737.88 1196.26L1702.52 1160.91L1737.88 1125.55L1773.23 1160.91L1808.59 1125.55ZM1843.94 1231.62L1914.65 1302.33L1879.3 1337.68L1808.59 1266.97L1843.94 1231.62ZM1667.17 1337.68L1631.81 1302.33L1596.46 1337.68L1631.81 1373.04L1667.17 1337.68ZM1596.46 1196.26L1631.81 1231.62L1596.46 1266.97L1631.81 1302.33L1667.17 1266.97L1631.81 1231.62L1702.52 1160.91L1667.17 1125.55L1596.46 1196.26ZM1737.88 1337.68L1808.59 1408.39L1773.23 1443.75L1702.52 1373.04L1737.88 1337.68Z" fill="#39FF14" fill-opacity="0.1"/>
<path fill-rule="evenodd" clip-rule="evenodd" d="M323.662 771.527L288.307 736.172L252.951 771.527L288.307 806.883L323.662 771.527ZM217.595 736.172L146.885 665.461L111.529 700.816L182.24 771.527L217.595 736.172ZM111.529 912.948L146.885 948.304L111.529 983.659L76.1739 948.304L111.529 912.948ZM288.307 806.883L323.662 842.238L288.307 877.593L323.662 912.948L252.951 983.659L217.596 948.303L288.306 877.593L252.951 842.238L288.307 806.883ZM217.596 948.304L182.24 912.948L146.885 948.304L182.24 983.659L217.596 948.304ZM111.53 842.238L40.8193 771.527L5.464 806.883L76.1747 877.593L111.53 842.238Z" fill="#39FF14" fill-opacity="0.1"/>
<path fill-rule="evenodd" clip-rule="evenodd" d="M111.527 559.396L146.883 594.751L111.527 630.106L76.1725 594.751L40.8175 630.106L5.46217 594.751L40.8175 559.396L76.1725 594.751L111.527 559.396ZM146.883 665.461L217.594 736.172L182.238 771.527L111.528 700.817L146.883 665.461ZM-29.8936 771.527L-65.2489 736.172L-100.604 771.527L-65.2489 806.883L-29.8936 771.527ZM-100.604 630.106L-65.2491 665.461L-100.604 700.816L-65.2489 736.172L-29.8936 700.816L-65.2485 665.461L5.46191 594.751L-29.8934 559.396L-100.604 630.106ZM40.8177 771.528L111.528 842.238L76.173 877.594L5.46231 806.883L40.8177 771.528Z" fill="#39FF14" fill-opacity="0.1"/>
<path fill-rule="evenodd" clip-rule="evenodd" d="M323.662 1903.37L288.307 1868.01L252.951 1903.37L288.307 1938.72L323.662 1903.37ZM217.595 1868.01L146.885 1797.3L111.529 1832.66L182.24 1903.37L217.595 1868.01ZM111.529 2044.79L146.885 2080.15L111.529 2115.5L76.1739 2080.15L111.529 2044.79ZM288.307 1938.72L323.662 1974.08L288.307 2009.43L323.662 2044.79L252.951 2115.5L217.596 2080.15L288.306 2009.43L252.951 1974.08L288.307 1938.72ZM217.596 2080.15L182.24 2044.79L146.885 2080.15L182.24 2115.5L217.596 2080.15ZM111.53 1974.08L40.8193 1903.37L5.464 1938.72L76.1747 2009.44L111.53 1974.08Z" fill="#39FF14" fill-opacity="0.1"/>
<path fill-rule="evenodd" clip-rule="evenodd" d="M111.527 1691.24L146.883 1726.59L111.527 1761.95L76.1725 1726.59L40.8175 1761.95L5.46217 1726.59L40.8175 1691.24L76.1725 1726.59L111.527 1691.24ZM146.883 1797.3L217.594 1868.01L182.238 1903.37L111.528 1832.66L146.883 1797.3ZM-29.8936 1903.37L-65.2489 1868.01L-100.604 1903.37L-65.2489 1938.72L-29.8936 1903.37ZM-100.604 1761.95L-65.2491 1797.3L-100.604 1832.66L-65.2489 1868.01L-29.8936 1832.66L-65.2485 1797.3L5.46191 1726.59L-29.8934 1691.24L-100.604 1761.95ZM40.8177 1903.37L111.528 1974.08L76.173 2009.44L5.46231 1938.72L40.8177 1903.37Z" fill="#39FF14" fill-opacity="0.1"/>
<path fill-rule="evenodd" clip-rule="evenodd" d="M323.662 2469.84L288.307 2434.49L252.951 2469.84L288.307 2505.2L323.662 2469.84ZM217.595 2434.49L146.885 2363.78L111.529 2399.13L182.24 2469.84L217.595 2434.49ZM111.529 2611.26L146.885 2646.62L111.529 2681.97L76.1739 2646.62L111.529 2611.26ZM288.307 2505.2L323.662 2540.55L288.307 2575.91L323.662 2611.26L252.951 2681.97L217.596 2646.62L288.306 2575.91L252.951 2540.55L288.307 2505.2ZM217.596 2646.62L182.24 2611.26L146.885 2646.62L182.24 2681.97L217.596 2646.62ZM111.53 2540.55L40.8193 2469.84L5.464 2505.2L76.1747 2575.91L111.53 2540.55Z" fill="#39FF14" fill-opacity="0.1"/>
<path fill-rule="evenodd" clip-rule="evenodd" d="M111.527 2257.71L146.883 2293.07L111.527 2328.42L76.1725 2293.07L40.8175 2328.42L5.46217 2293.07L40.8175 2257.71L76.1725 2293.07L111.527 2257.71ZM146.883 2363.78L217.594 2434.49L182.238 2469.84L111.528 2399.13L146.883 2363.78ZM-29.8936 2469.84L-65.2489 2434.49L-100.604 2469.84L-65.2489 2505.2L-29.8936 2469.84ZM-100.604 2328.42L-65.2491 2363.78L-100.604 2399.13L-65.2489 2434.49L-29.8936 2399.13L-65.2485 2363.78L5.46191 2293.07L-29.8934 2257.71L-100.604 2328.42ZM40.8177 2469.84L111.528 2540.55L76.173 2575.91L5.46231 2505.2L40.8177 2469.84Z" fill="#39FF14" fill-opacity="0.1"/>
<path fill-rule="evenodd" clip-rule="evenodd" d="M323.662 3034.84L288.307 2999.49L252.951 3034.84L288.307 3070.1L323.662 3034.84ZM217.595 2999.49L146.885 2928.78L111.529 2964.13L182.24 3034.84L217.595 2999.49ZM111.529 3176.26L146.885 3211.62L111.529 3246.97L76.1739 3211.62L111.529 3176.26ZM288.307 3070.1L323.662 3105.55L288.307 3140.91L323.662 3176.26L252.951 3246.97L217.596 3211.62L288.306 3140.91L252.951 3105.55L288.307 3070.1ZM217.596 3211.62L182.24 3176.26L146.885 3211.62L182.24 3246.97L217.596 3211.62ZM111.53 3105.55L40.8193 3034.84L5.464 3070.1L76.1747 3140.91L111.53 3105.55Z" fill="#39FF14" fill-opacity="0.1"/>
<path fill-rule="evenodd" clip-rule="evenodd" d="M111.527 2822.71L146.883 2858.07L111.527 2893.42L76.1725 2858.07L40.8175 2893.42L5.46217 2858.07L40.8175 2822.71L76.1725 2858.07L111.527 2822.71ZM146.883 2928.78L217.594 2999.49L182.238 3034.84L111.528 2964.13L146.883 2928.78ZM-29.8936 3034.84L-65.2489 2999.49L-100.604 3034.84L-65.2489 3070.1L-29.8936 3034.84ZM-100.604 2893.42L-65.2491 2928.78L-100.604 2964.13L-65.2489 2999.49L-29.8936 2964.13L-65.2485 2928.78L5.46191 2858.07L-29.8934 2822.71L-100.604 2893.42ZM40.8177 3034.84L111.528 3105.55L76.173 3140.91L5.46231 3070.1L40.8177 3034.84Z" fill="#39FF14" fill-opacity="0.1"/>
<path fill-rule="evenodd" clip-rule="evenodd" d="M889.349 771.527L853.994 736.172L818.639 771.527L853.994 806.883L889.349 771.527ZM783.283 736.172L712.572 665.461L677.217 700.816L747.928 771.527L783.283 736.172ZM677.217 912.948L712.572 948.304L677.217 983.659L641.861 948.304L677.217 912.948ZM853.994 806.883L889.349 842.238L853.994 877.593L889.349 912.948L818.639 983.659L783.283 948.303L853.994 877.593L818.639 842.238L853.994 806.883ZM783.283 948.304L747.928 912.948L712.572 948.304L747.928 983.659L783.283 948.304ZM677.218 842.238L606.507 771.527L571.151 806.883L641.862 877.593L677.218 842.238Z" fill="#39FF14" fill-opacity="0.1"/>
<path fill-rule="evenodd" clip-rule="evenodd" d="M677.215 559.396L712.57 594.751L677.215 630.106L641.86 594.751L606.505 630.106L571.15 594.751L606.505 559.396L641.86 594.751L677.215 559.396ZM712.571 665.461L783.281 736.172L747.926 771.527L677.215 700.817L712.571 665.461ZM535.794 771.527L500.439 736.172L465.083 771.527L500.439 806.883L535.794 771.527ZM465.083 630.106L500.438 665.461L465.083 700.816L500.439 736.172L535.794 700.816L500.439 665.461L571.149 594.751L535.794 559.396L465.083 630.106ZM606.505 771.528L677.216 842.238L641.86 877.594L571.15 806.883L606.505 771.528Z" fill="#39FF14" fill-opacity="0.1"/>
<path fill-rule="evenodd" clip-rule="evenodd" d="M889.349 1903.37L853.994 1868.01L818.639 1903.37L853.994 1938.72L889.349 1903.37ZM783.283 1868.01L712.572 1797.3L677.217 1832.66L747.928 1903.37L783.283 1868.01ZM677.217 2044.79L712.572 2080.15L677.217 2115.5L641.861 2080.15L677.217 2044.79ZM853.994 1938.72L889.349 1974.08L853.994 2009.43L889.349 2044.79L818.639 2115.5L783.283 2080.15L853.994 2009.43L818.639 1974.08L853.994 1938.72ZM783.283 2080.15L747.928 2044.79L712.572 2080.15L747.928 2115.5L783.283 2080.15ZM677.218 1974.08L606.507 1903.37L571.151 1938.72L641.862 2009.44L677.218 1974.08Z" fill="#39FF14" fill-opacity="0.1"/>
<path fill-rule="evenodd" clip-rule="evenodd" d="M677.215 1691.24L712.57 1726.59L677.215 1761.95L641.86 1726.59L606.505 1761.95L571.15 1726.59L606.505 1691.24L641.86 1726.59L677.215 1691.24ZM712.571 1797.3L783.281 1868.01L747.926 1903.37L677.215 1832.66L712.571 1797.3ZM535.794 1903.37L500.439 1868.01L465.083 1903.37L500.439 1938.72L535.794 1903.37ZM465.083 1761.95L500.438 1797.3L465.083 1832.66L500.439 1868.01L535.794 1832.66L500.439 1797.3L571.149 1726.59L535.794 1691.24L465.083 1761.95ZM606.505 1903.37L677.216 1974.08L641.86 2009.44L571.15 1938.72L606.505 1903.37Z" fill="#39FF14" fill-opacity="0.1"/>
<path fill-rule="evenodd" clip-rule="evenodd" d="M889.349 2469.84L853.994 2434.49L818.639 2469.84L853.994 2505.2L889.349 2469.84ZM783.283 2434.49L712.572 2363.78L677.217 2399.13L747.928 2469.84L783.283 2434.49ZM677.217 2611.26L712.572 2646.62L677.217 2681.97L641.861 2646.62L677.217 2611.26ZM853.994 2505.2L889.349 2540.55L853.994 2575.91L889.349 2611.26L818.639 2681.97L783.283 2646.62L853.994 2575.91L818.639 2540.55L853.994 2505.2ZM783.283 2646.62L747.928 2611.26L712.572 2646.62L747.928 2681.97L783.283 2646.62ZM677.218 2540.55L606.507 2469.84L571.151 2505.2L641.862 2575.91L677.218 2540.55Z" fill="#39FF14" fill-opacity="0.1"/>
<path fill-rule="evenodd" clip-rule="evenodd" d="M677.215 2257.71L712.57 2293.07L677.215 2328.42L641.86 2293.07L606.505 2328.42L571.15 2293.07L606.505 2257.71L641.86 2293.07L677.215 2257.71ZM712.571 2363.78L783.281 2434.49L747.926 2469.84L677.215 2399.13L712.571 2363.78ZM535.794 2469.84L500.439 2434.49L465.083 2469.84L500.439 2505.2L535.794 2469.84ZM465.083 2328.42L500.438 2363.78L465.083 2399.13L500.439 2434.49L535.794 2399.13L500.439 2363.78L571.149 2293.07L535.794 2257.71L465.083 2328.42ZM606.505 2469.84L677.216 2540.55L641.86 2575.91L571.15 2505.2L606.505 2469.84Z" fill="#39FF14" fill-opacity="0.1"/>
<path fill-rule="evenodd" clip-rule="evenodd" d="M889.349 3034.84L853.994 2999.49L818.639 3034.84L853.994 3070.1L889.349 3034.84ZM783.283 2999.49L712.572 2928.78L677.217 2964.13L747.928 3034.84L783.283 2999.49ZM677.217 3176.26L712.572 3211.62L677.217 3246.97L641.861 3211.62L677.217 3176.26ZM853.994 3070.1L889.349 3105.55L853.994 3140.91L889.349 3176.26L818.639 3246.97L783.283 3211.62L853.994 3140.91L818.639 3105.55L853.994 3070.1ZM783.283 3211.62L747.928 3176.26L712.572 3211.62L747.928 3246.97L783.283 3211.62ZM677.218 3105.55L606.507 3034.84L571.151 3070.1L641.862 3140.91L677.218 3105.55Z" fill="#39FF14" fill-opacity="0.1"/>
<path fill-rule="evenodd" clip-rule="evenodd" d="M677.215 2822.71L712.57 2858.07L677.215 2893.42L641.86 2858.07L606.505 2893.42L571.15 2858.07L606.505 2822.71L641.86 2858.07L677.215 2822.71ZM712.571 2928.78L783.281 2999.49L747.926 3034.84L677.215 2964.13L712.571 2928.78ZM535.794 3034.84L500.439 2999.49L465.083 3034.84L500.439 3070.1L535.794 3034.84ZM465.083 2893.42L500.438 2928.78L465.083 2964.13L500.439 2999.49L535.794 2964.13L500.439 2928.78L571.149 2858.07L535.794 2822.71L465.083 2893.42ZM606.505 3034.84L677.216 3105.55L641.86 3140.91L571.15 3070.1L606.505 3034.84Z" fill="#39FF14" fill-opacity="0.1"/>
<path fill-rule="evenodd" clip-rule="evenodd" d="M1455.04 771.527L1419.68 736.172L1384.32 771.527L1419.68 806.883L1455.04 771.527ZM1348.97 736.172L1278.26 665.461L1242.9 700.816L1313.61 771.527L1348.97 736.172ZM1242.9 912.948L1278.26 948.304L1242.9 983.659L1207.55 948.304L1242.9 912.948ZM1419.68 806.883L1455.04 842.238L1419.68 877.593L1455.04 912.948L1384.32 983.659L1348.97 948.303L1419.68 877.593L1384.32 842.238L1419.68 806.883ZM1348.97 948.304L1313.61 912.948L1278.26 948.304L1313.61 983.659L1348.97 948.304ZM1242.9 842.238L1172.19 771.527L1136.84 806.883L1207.55 877.593L1242.9 842.238Z" fill="#39FF14" fill-opacity="0.1"/>
<path fill-rule="evenodd" clip-rule="evenodd" d="M1242.9 559.396L1278.26 594.751L1242.9 630.106L1207.55 594.751L1172.19 630.106L1136.84 594.751L1172.19 559.396L1207.55 594.751L1242.9 559.396ZM1278.26 665.461L1348.97 736.172L1313.61 771.527L1242.9 700.817L1278.26 665.461ZM1101.48 771.527L1066.12 736.172L1030.77 771.527L1066.12 806.883L1101.48 771.527ZM1030.77 630.106L1066.12 665.461L1030.77 700.816L1066.12 736.172L1101.48 700.816L1066.12 665.461L1136.83 594.751L1101.48 559.396L1030.77 630.106ZM1172.19 771.528L1242.9 842.238L1207.55 877.594L1136.84 806.883L1172.19 771.528Z" fill="#39FF14" fill-opacity="0.1"/>
<path fill-rule="evenodd" clip-rule="evenodd" d="M1455.04 1903.37L1419.68 1868.01L1384.32 1903.37L1419.68 1938.72L1455.04 1903.37ZM1348.97 1868.01L1278.26 1797.3L1242.9 1832.66L1313.61 1903.37L1348.97 1868.01ZM1242.9 2044.79L1278.26 2080.15L1242.9 2115.5L1207.55 2080.15L1242.9 2044.79ZM1419.68 1938.72L1455.04 1974.08L1419.68 2009.43L1455.04 2044.79L1384.32 2115.5L1348.97 2080.15L1419.68 2009.43L1384.32 1974.08L1419.68 1938.72ZM1348.97 2080.15L1313.61 2044.79L1278.26 2080.15L1313.61 2115.5L1348.97 2080.15ZM1242.9 1974.08L1172.19 1903.37L1136.84 1938.72L1207.55 2009.44L1242.9 1974.08Z" fill="#39FF14" fill-opacity="0.1"/>
<path fill-rule="evenodd" clip-rule="evenodd" d="M1242.9 1691.24L1278.26 1726.59L1242.9 1761.95L1207.55 1726.59L1172.19 1761.95L1136.84 1726.59L1172.19 1691.24L1207.55 1726.59L1242.9 1691.24ZM1278.26 1797.3L1348.97 1868.01L1313.61 1903.37L1242.9 1832.66L1278.26 1797.3ZM1101.48 1903.37L1066.12 1868.01L1030.77 1903.37L1066.12 1938.72L1101.48 1903.37ZM1030.77 1761.95L1066.12 1797.3L1030.77 1832.66L1066.12 1868.01L1101.48 1832.66L1066.12 1797.3L1136.83 1726.59L1101.48 1691.24L1030.77 1761.95ZM1172.19 1903.37L1242.9 1974.08L1207.55 2009.44L1136.84 1938.72L1172.19 1903.37Z" fill="#39FF14" fill-opacity="0.1"/>
<path fill-rule="evenodd" clip-rule="evenodd" d="M1455.04 2469.84L1419.68 2434.49L1384.32 2469.84L1419.68 2505.2L1455.04 2469.84ZM1348.97 2434.49L1278.26 2363.78L1242.9 2399.13L1313.61 2469.84L1348.97 2434.49ZM1242.9 2611.26L1278.26 2646.62L1242.9 2681.97L1207.55 2646.62L1242.9 2611.26ZM1419.68 2505.2L1455.04 2540.55L1419.68 2575.91L1455.04 2611.26L1384.32 2681.97L1348.97 2646.62L1419.68 2575.91L1384.32 2540.55L1419.68 2505.2ZM1348.97 2646.62L1313.61 2611.26L1278.26 2646.62L1313.61 2681.97L1348.97 2646.62ZM1242.9 2540.55L1172.19 2469.84L1136.84 2505.2L1207.55 2575.91L1242.9 2540.55Z" fill="#39FF14" fill-opacity="0.1"/>
<path fill-rule="evenodd" clip-rule="evenodd" d="M1242.9 2257.71L1278.26 2293.07L1242.9 2328.42L1207.55 2293.07L1172.19 2328.42L1136.84 2293.07L1172.19 2257.71L1207.55 2293.07L1242.9 2257.71ZM1278.26 2363.78L1348.97 2434.49L1313.61 2469.84L1242.9 2399.13L1278.26 2363.78ZM1101.48 2469.84L1066.12 2434.49L1030.77 2469.84L1066.12 2505.2L1101.48 2469.84ZM1030.77 2328.42L1066.12 2363.78L1030.77 2399.13L1066.12 2434.49L1101.48 2399.13L1066.12 2363.78L1136.83 2293.07L1101.48 2257.71L1030.77 2328.42ZM1172.19 2469.84L1242.9 2540.55L1207.55 2575.91L1136.84 2505.2L1172.19 2469.84Z" fill="#39FF14" fill-opacity="0.1"/>
<path fill-rule="evenodd" clip-rule="evenodd" d="M1455.04 3034.84L1419.68 2999.49L1384.32 3034.84L1419.68 3070.1L1455.04 3034.84ZM1348.97 2999.49L1278.26 2928.78L1242.9 2964.13L1313.61 3034.84L1348.97 2999.49ZM1242.9 3176.26L1278.26 3211.62L1242.9 3246.97L1207.55 3211.62L1242.9 3176.26ZM1419.68 3070.1L1455.04 3105.55L1419.68 3140.91L1455.04 3176.26L1384.32 3246.97L1348.97 3211.62L1419.68 3140.91L1384.32 3105.55L1419.68 3070.1ZM1348.97 3211.62L1313.61 3176.26L1278.26 3211.62L1313.61 3246.97L1348.97 3211.62ZM1242.9 3105.55L1172.19 3034.84L1136.84 3070.1L1207.55 3140.91L1242.9 3105.55Z" fill="#39FF14" fill-opacity="0.1"/>
<path fill-rule="evenodd" clip-rule="evenodd" d="M1242.9 2822.71L1278.26 2858.07L1242.9 2893.42L1207.55 2858.07L1172.19 2893.42L1136.84 2858.07L1172.19 2822.71L1207.55 2858.07L1242.9 2822.71ZM1278.26 2928.78L1348.97 2999.49L1313.61 3034.84L1242.9 2964.13L1278.26 2928.78ZM1101.48 3034.84L1066.12 2999.49L1030.77 3034.84L1066.12 3070.1L1101.48 3034.84ZM1030.77 2893.42L1066.12 2928.78L1030.77 2964.13L1066.12 2999.49L1101.48 2964.13L1066.12 2928.78L1136.83 2858.07L1101.48 2822.71L1030.77 2893.42ZM1172.19 3034.84L1242.9 3105.55L1207.55 3140.91L1136.84 3070.1L1172.19 3034.84Z" fill="#39FF14" fill-opacity="0.1"/>
<path fill-rule="evenodd" clip-rule="evenodd" d="M2020.72 771.527L1985.37 736.172L1950.01 771.527L1985.37 806.883L2020.72 771.527ZM1914.66 736.172L1843.95 665.461L1808.59 700.816L1879.3 771.527L1914.66 736.172ZM1808.59 912.948L1843.95 948.304L1808.59 983.659L1773.23 948.304L1808.59 912.948ZM1985.37 806.883L2020.72 842.238L1985.37 877.593L2020.72 912.948L1950.01 983.659L1914.66 948.303L1985.37 877.593L1950.01 842.238L1985.37 806.883ZM1914.66 948.304L1879.3 912.948L1843.95 948.304L1879.3 983.659L1914.66 948.304ZM1808.59 842.238L1737.88 771.527L1702.52 806.883L1773.24 877.593L1808.59 842.238Z" fill="#39FF14" fill-opacity="0.1"/>
<path fill-rule="evenodd" clip-rule="evenodd" d="M1808.59 559.396L1843.94 594.751L1808.59 630.106L1773.23 594.751L1737.88 630.106L1702.52 594.751L1737.88 559.396L1773.23 594.751L1808.59 559.396ZM1843.94 665.461L1914.65 736.172L1879.3 771.527L1808.59 700.817L1843.94 665.461ZM1667.17 771.527L1631.81 736.172L1596.46 771.527L1631.81 806.883L1667.17 771.527ZM1596.46 630.106L1631.81 665.461L1596.46 700.816L1631.81 736.172L1667.17 700.816L1631.81 665.461L1702.52 594.751L1667.17 559.396L1596.46 630.106ZM1737.88 771.528L1808.59 842.238L1773.23 877.594L1702.52 806.883L1737.88 771.528Z" fill="#39FF14" fill-opacity="0.1"/>
<path fill-rule="evenodd" clip-rule="evenodd" d="M2020.72 1903.37L1985.37 1868.01L1950.01 1903.37L1985.37 1938.72L2020.72 1903.37ZM1914.66 1868.01L1843.95 1797.3L1808.59 1832.66L1879.3 1903.37L1914.66 1868.01ZM1808.59 2044.79L1843.95 2080.15L1808.59 2115.5L1773.23 2080.15L1808.59 2044.79ZM1985.37 1938.72L2020.72 1974.08L1985.37 2009.43L2020.72 2044.79L1950.01 2115.5L1914.66 2080.15L1985.37 2009.43L1950.01 1974.08L1985.37 1938.72ZM1914.66 2080.15L1879.3 2044.79L1843.95 2080.15L1879.3 2115.5L1914.66 2080.15ZM1808.59 1974.08L1737.88 1903.37L1702.52 1938.72L1773.24 2009.44L1808.59 1974.08Z" fill="#39FF14" fill-opacity="0.1"/>
<path fill-rule="evenodd" clip-rule="evenodd" d="M1808.59 1691.24L1843.94 1726.59L1808.59 1761.95L1773.23 1726.59L1737.88 1761.95L1702.52 1726.59L1737.88 1691.24L1773.23 1726.59L1808.59 1691.24ZM1843.94 1797.3L1914.65 1868.01L1879.3 1903.37L1808.59 1832.66L1843.94 1797.3ZM1667.17 1903.37L1631.81 1868.01L1596.46 1903.37L1631.81 1938.72L1667.17 1903.37ZM1596.46 1761.95L1631.81 1797.3L1596.46 1832.66L1631.81 1868.01L1667.17 1832.66L1631.81 1797.3L1702.52 1726.59L1667.17 1691.24L1596.46 1761.95ZM1737.88 1903.37L1808.59 1974.08L1773.23 2009.44L1702.52 1938.72L1737.88 1903.37Z" fill="#39FF14" fill-opacity="0.1"/>
<path fill-rule="evenodd" clip-rule="evenodd" d="M2020.72 2469.84L1985.37 2434.49L1950.01 2469.84L1985.37 2505.2L2020.72 2469.84ZM1914.66 2434.49L1843.95 2363.78L1808.59 2399.13L1879.3 2469.84L1914.66 2434.49ZM1808.59 2611.26L1843.95 2646.62L1808.59 2681.97L1773.23 2646.62L1808.59 2611.26ZM1985.37 2505.2L2020.72 2540.55L1985.37 2575.91L2020.72 2611.26L1950.01 2681.97L1914.66 2646.62L1985.37 2575.91L1950.01 2540.55L1985.37 2505.2ZM1914.66 2646.62L1879.3 2611.26L1843.95 2646.62L1879.3 2681.97L1914.66 2646.62ZM1808.59 2540.55L1737.88 2469.84L1702.52 2505.2L1773.24 2575.91L1808.59 2540.55Z" fill="#39FF14" fill-opacity="0.1"/>
<path fill-rule="evenodd" clip-rule="evenodd" d="M1808.59 2257.71L1843.94 2293.07L1808.59 2328.42L1773.23 2293.07L1737.88 2328.42L1702.52 2293.07L1737.88 2257.71L1773.23 2293.07L1808.59 2257.71ZM1843.94 2363.78L1914.65 2434.49L1879.3 2469.84L1808.59 2399.13L1843.94 2363.78ZM1667.17 2469.84L1631.81 2434.49L1596.46 2469.84L1631.81 2505.2L1667.17 2469.84ZM1596.46 2328.42L1631.81 2363.78L1596.46 2399.13L1631.81 2434.49L1667.17 2399.13L1631.81 2363.78L1702.52 2293.07L1667.17 2257.71L1596.46 2328.42ZM1737.88 2469.84L1808.59 2540.55L1773.23 2575.91L1702.52 2505.2L1737.88 2469.84Z" fill="#39FF14" fill-opacity="0.1"/>
<path fill-rule="evenodd" clip-rule="evenodd" d="M2020.72 3034.84L1985.37 2999.49L1950.01 3034.84L1985.37 3070.1L2020.72 3034.84ZM1914.66 2999.49L1843.95 2928.78L1808.59 2964.13L1879.3 3034.84L1914.66 2999.49ZM1808.59 3176.26L1843.95 3211.62L1808.59 3246.97L1773.23 3211.62L1808.59 3176.26ZM1985.37 3070.1L2020.72 3105.55L1985.37 3140.91L2020.72 3176.26L1950.01 3246.97L1914.66 3211.62L1985.37 3140.91L1950.01 3105.55L1985.37 3070.1ZM1914.66 3211.62L1879.3 3176.26L1843.95 3211.62L1879.3 3246.97L1914.66 3211.62ZM1808.59 3105.55L1737.88 3034.84L1702.52 3070.1L1773.24 3140.91L1808.59 3105.55Z" fill="#39FF14" fill-opacity="0.1"/>
<path fill-rule="evenodd" clip-rule="evenodd" d="M1808.59 2822.71L1843.94 2858.07L1808.59 2893.42L1773.23 2858.07L1737.88 2893.42L1702.52 2858.07L1737.88 2822.71L1773.23 2858.07L1808.59 2822.71ZM1843.94 2928.78L1914.65 2999.49L1879.3 3034.84L1808.59 2964.13L1843.94 2928.78ZM1667.17 3034.84L1631.81 2999.49L1596.46 3034.84L1631.81 3070.1L1667.17 3034.84ZM1596.46 2893.42L1631.81 2928.78L1596.46 2964.13L1631.81 2999.49L1667.17 2964.13L1631.81 2928.78L1702.52 2858.07L1667.17 2822.71L1596.46 2893.42ZM1737.88 3034.84L1808.59 3105.55L1773.23 3140.91L1702.52 3070.1L1737.88 3034.84Z" fill="#39FF14" fill-opacity="0.1"/>
</g>
<defs>
<clipPath id="clip0_41_78">
<rect width="1920" height="3240" fill="white"/>
</clipPath>
</defs>
</svg>
